<?xml version="1.0" encoding="utf-8"?>
<?xml-stylesheet type="text/xsl" href="rss1.xsl"?>
<rss version="2.0" xmlns:atom="http://www.w3.org/2005/Atom" xmlns:content="http://purl.org/rss/1.0/modules/content/" xmlns:dc="http://purl.org/dc/elements/1.1/" xmlns:media="http://search.yahoo.com/mrss/">
<channel>
 <title>Getty</title>
 <link>http://www.gettyimg.com/</link>
 <atom:link href="http://www.gettyimg.com/" rel="self" type="application/rss+xml" />

 
                <item>
                <title><![CDATA[【Apple Music】WEB-RiP - NEIKED, Mae Muller &amp; Polo G - Better Days (1080p)]]></title>
                <link><![CDATA[https://sharemania.us/threads/neiked-mae-muller-polo-g-better-days-1080p.220468/]]></link>
                <description><![CDATA[<article>
<blockquote class="messageText SelectQuoteContainer ugc baseHtml">
<img src="https://i.imgur.com/2hRgqeJ.jpg" class="bbCodeImage LbImage" alt="[​IMG]" data-url="https://i.imgur.com/2hRgqeJ.jpg" style=""><br>
<br>
<div class="bbCodeBlock bbCodeCode">
<div class="type">Code:</div>
<pre>General
Complete name                  : C:\Users\asus\Desktop\NEIKED, Mae Muller &amp; Polo G - Better Days.mp4
Format                         : MPEG-4
Format profile                 : Base Media
Codec ID                       : isom (isom/iso2/avc1/mp41)
File size                      : 140 MiB
Duration                       : 2 min 54 s
Overall bit rate               : 6 734 kb/s
Frame rate                     : 25.000 FPS
Movie name                     : Better Days
Performer                      : NEIKED, Mae Muller &amp; Polo G
Genre                          : Pop
ContentType                    : Music Video
Recorded date                  : 2021-10-07 07:00:00 UTC
Writing application            : Lavf57.29.101
Copyright                      : ℗ A Capitol UK Records Recording; © 2021 Neiked Collective AB, under exclusive licence to Universal Music Operations Limited

Video
ID                             : 1
Format                         : AVC
Format/Info                    : Advanced Video Codec
Format profile                 : High@L4
Format settings                : CABAC / 4 Ref Frames
Format settings, CABAC         : Yes
Format settings, Reference fra : 4 frames
Codec ID                       : avc1
Codec ID/Info                  : Advanced Video Coding
Duration                       : 2 min 54 s
Bit rate                       : 6 478 kb/s
Width                          : 1 920 pixels
Height                         : 1 080 pixels
Display aspect ratio           : 16:9
Frame rate mode                : Constant
Frame rate                     : 25.000 FPS
Color space                    : YUV
Chroma subsampling             : 4:2:0
Bit depth                      : 8 bits
Scan type                      : Progressive
Bits/(Pixel*Frame)             : 0.125
Stream size                    : 135 MiB (96%)
Language                       : English
Color range                    : Limited
Color primaries                : BT.709
Transfer characteristics       : BT.709
Matrix coefficients            : BT.709
Codec configuration box        : avcC

Audio
ID                             : 2
Format                         : AAC LC
Format/Info                    : Advanced Audio Codec Low Complexity
Codec ID                       : mp4a-40-2
Duration                       : 2 min 54 s
Bit rate mode                  : Constant
Bit rate                       : 252 kb/s
Channel(s)                     : 2 channels
Channel layout                 : L R
Sampling rate                  : 48.0 kHz
Frame rate                     : 46.875 FPS (1024 SPF)
Compression mode               : Lossy
Stream size                    : 5.25 MiB (4%)
Default                        : Yes
Alternate group                : 1

</pre>
</div>
<div class="bbCodeBlock bbCodeVfcHH HiddenContent">
<div class="attribution type">Hidden Content:</div>
<blockquote>You must either reply or click 'Like' to see the hidden information contained here.</blockquote>
</div>
<div class="messageTextEndMarker">&nbsp;</div>
</blockquote>
</article>]]></description>
                <author><![CDATA[vitalya3]]></author>
                </item>

                
                <item>
                <title><![CDATA[【Albums (lossless)】WAV - 2000 - Emilia [Japan Edition][WAV]]]></title>
                <link><![CDATA[https://sharemania.us/threads/2000-emilia-japan-edition-wav.220469/]]></link>
                <description><![CDATA[<article>
<blockquote class="messageText SelectQuoteContainer ugc baseHtml">
<img src="https://www.google.com/url?sa=i&amp;url=https%3A%2F%2Fwww.fanfan1.com%2Fproducts%2Fdetail%2F813996&amp;psig=AOvVaw1ggPBjf_LW3Q0-0xNnXYjw&amp;ust=1683490078976000&amp;source=images&amp;cd=vfe&amp;ved=0CA4QjRxqFwoTCJDI2rW_4f4CFQAAAAAdAAAAABAD" class="bbCodeImage LbImage" alt="[​IMG]" data-url="https://www.google.com/url?sa=i&amp;url=https%3A%2F%2Fwww.fanfan1.com%2Fproducts%2Fdetail%2F813996&amp;psig=AOvVaw1ggPBjf_LW3Q0-0xNnXYjw&amp;ust=1683490078976000&amp;source=images&amp;cd=vfe&amp;ved=0CA4QjRxqFwoTCJDI2rW_4f4CFQAAAAAdAAAAABAD" style=""> <img src="https://www.fanfan1.com/upload/save_image/03251414_5e7ae8d185b39.jpg" class="bbCodeImage LbImage" alt="[​IMG]" data-url="https://www.fanfan1.com/upload/save_image/03251414_5e7ae8d185b39.jpg" style=""> <br>
<a href="https://www.mediafire.com/file/qs18qf2ra36649y/2000+-+Emilia+[Japan+Edition][WAV].7z/file" target="_blank" class="externalLink" rel="nofollow">https://www.mediafire.com/file/qs18qf2ra36649y/2000+-+Emilia+[Japan+Edition][WAV].7z/file</a><br>
<a href="https://www.discogs.com/release/4848949-Emilia-Emilia" target="_blank" class="externalLink" rel="nofollow">https://www.discogs.com/release/4848949-Emilia-Emilia</a>
<div class="messageTextEndMarker">&nbsp;</div>
</blockquote>
</article>]]></description>
                <author><![CDATA[Francineudo]]></author>
                </item>

                </channel></rss>